<?xml version="1.0" standalone="no"?>
<!DOCTYPE svg PUBLIC "-//W3C//DTD SVG 20010904//EN"
 "http://www.w3.org/TR/2001/REC-SVG-20010904/DTD/svg10.dtd">
<svg version="1.0" xmlns="http://www.w3.org/2000/svg"
 width="700.000000pt" height="700.000000pt" viewBox="0 0 700.000000 700.000000"
 preserveAspectRatio="xMidYMid meet">
<metadata>
Created by potrace 1.11, written by Peter Selinger 2001-2013
</metadata>
<g transform="translate(0.000000,700.000000) scale(0.100000,-0.100000)"
fill="#000000" stroke="none">
<path d="M2003 6993 c3 -4 17 -39 32 -78 44 -112 255 -628 265 -650 5 -11 19
-45 31 -75 11 -30 27 -68 34 -85 8 -16 41 -97 74 -180 33 -82 111 -276 174
-430 63 -154 154 -377 202 -495 48 -118 102 -251 120 -295 18 -44 72 -177 120
-295 48 -118 94 -231 102 -250 27 -63 31 -73 123 -299 49 -123 89 -226 87
-228 -2 -1 -80 28 -173 66 -308 124 -329 133 -359 146 -16 7 -100 41 -185 75
-85 34 -168 68 -185 76 -16 7 -237 97 -490 200 -253 102 -476 193 -495 201
-58 25 -63 27 -408 167 -184 75 -336 136 -338 136 -3 0 -24 8 -47 19 -23 10
-150 63 -282 116 -132 54 -275 112 -317 130 -43 19 -78 32 -78 30 0 -9 35 -64
120 -190 52 -77 97 -144 100 -150 3 -5 75 -113 160 -240 85 -126 157 -234 160
-240 3 -5 105 -160 227 -343 l223 -333 -27 -42 c-15 -23 -30 -44 -33 -47 -3
-3 -30 -43 -60 -90 -30 -47 -57 -87 -60 -90 -3 -3 -39 -57 -80 -120 -41 -63
-77 -117 -80 -120 -3 -3 -152 -226 -332 -497 -226 -339 -321 -490 -305 -484
42 17 202 82 222 91 11 5 45 19 75 31 30 11 69 27 85 34 17 8 147 61 290 119
143 58 348 141 455 184 378 154 576 235 710 289 74 30 153 63 177 74 23 10 45
19 48 19 4 0 21 6 38 14 18 8 95 40 172 71 361 146 613 248 640 260 98 43 429
175 432 172 3 -3 -33 -94 -238 -594 -44 -109 -122 -301 -174 -428 -51 -126
-114 -281 -139 -342 -93 -227 -139 -342 -223 -548 -47 -115 -91 -223 -98 -240
-14 -32 -67 -162 -230 -565 -57 -140 -132 -322 -165 -405 -34 -82 -70 -171
-81 -197 l-19 -48 750 500 750 500 258 -173 c141 -94 262 -174 267 -177 6 -3
227 -150 492 -327 334 -223 480 -316 474 -300 -9 23 -56 137 -70 172 -5 11
-18 43 -29 70 -84 207 -624 1534 -632 1550 -5 11 -19 45 -31 75 -11 30 -27 69
-34 85 -40 88 -565 1389 -562 1392 2 1 80 -28 173 -66 521 -211 602 -244 629
-256 52 -23 677 -277 730 -297 28 -10 64 -25 80 -32 29 -14 138 -58 650 -266
132 -53 314 -128 405 -165 91 -37 237 -96 325 -132 88 -36 174 -71 190 -79 17
-7 65 -26 107 -43 l77 -29 -72 107 c-40 58 -74 111 -77 116 -3 6 -187 282
-410 615 -223 333 -407 610 -409 615 -2 6 -10 17 -18 27 -13 14 34 89 455 720
577 865 541 809 502 788 -11 -6 -79 -35 -152 -64 -73 -30 -205 -83 -293 -119
-88 -36 -185 -75 -215 -87 -30 -13 -68 -28 -85 -35 -16 -7 -124 -51 -240 -98
-115 -47 -388 -158 -605 -247 -217 -89 -460 -188 -540 -220 -513 -209 -1001
-407 -1094 -446 -59 -25 -110 -43 -112 -41 -2 2 42 118 99 258 58 140 177 434
267 654 89 220 168 414 175 430 7 17 61 149 120 295 59 146 116 285 127 310
10 25 31 74 44 110 14 36 29 74 34 85 14 31 100 240 193 470 199 492 288 707
297 726 8 15 7 19 -4 19 -8 0 -16 -3 -18 -7 -1 -5 -244 -168 -538 -363 -294
-195 -537 -357 -540 -360 -3 -3 -84 -57 -180 -120 -96 -63 -181 -121 -188
-127 -7 -7 -16 -13 -18 -13 -3 0 -46 28 -97 63 -51 34 -96 64 -102 67 -5 3
-53 34 -105 70 -52 36 -103 69 -112 75 -19 11 -178 117 -248 165 -58 40 -224
151 -255 170 -32 20 -162 107 -200 133 -16 12 -52 36 -80 54 -27 18 -57 37
-65 43 -17 12 -116 78 -192 128 -27 18 -48 29 -45 25z"/>
</g>
</svg>
